<?xml version="1.0" encoding="utf-8"?>
<!-- Generator: Adobe Illustrator 21.1.0, SVG Export Plug-In . SVG Version: 6.00 Build 0)  -->
<svg version="1.1" id="Layer_1" xmlns="http://www.w3.org/2000/svg" xmlns:xlink="http://www.w3.org/1999/xlink" x="0px" y="0px"
	 viewBox="0 0 800 800" style="enable-background:new 0 0 800 800;" xml:space="preserve">
<style type="text/css">
	.st0{clip-path:url(#SVGID_2_);fill:#D64CDA;}
	.st1{clip-path:url(#SVGID_2_);fill:#D64CD9;}
	.st2{clip-path:url(#SVGID_2_);fill:#D64CD8;}
	.st3{clip-path:url(#SVGID_2_);fill:#D64CD7;}
	.st4{clip-path:url(#SVGID_2_);fill:#D64CD6;}
	.st5{clip-path:url(#SVGID_2_);fill:#D64BD5;}
	.st6{clip-path:url(#SVGID_2_);fill:#D74BD4;}
	.st7{clip-path:url(#SVGID_2_);fill:#D74BD3;}
	.st8{clip-path:url(#SVGID_2_);fill:#D74BD2;}
	.st9{clip-path:url(#SVGID_2_);fill:#D74BD1;}
	.st10{clip-path:url(#SVGID_2_);fill:#D74BD0;}
	.st11{clip-path:url(#SVGID_2_);fill:#D74BCF;}
	.st12{clip-path:url(#SVGID_2_);fill:#D74BCE;}
	.st13{clip-path:url(#SVGID_2_);fill:#D74BCD;}
	.st14{clip-path:url(#SVGID_2_);fill:#D74ACC;}
	.st15{clip-path:url(#SVGID_2_);fill:#D74ACB;}
	.st16{clip-path:url(#SVGID_2_);fill:#D84ACB;}
	.st17{clip-path:url(#SVGID_2_);fill:#D84ACA;}
	.st18{clip-path:url(#SVGID_2_);fill:#D84AC9;}
	.st19{clip-path:url(#SVGID_2_);fill:#D84AC8;}
	.st20{clip-path:url(#SVGID_2_);fill:#D84AC7;}
	.st21{clip-path:url(#SVGID_2_);fill:#D84AC6;}
	.st22{clip-path:url(#SVGID_2_);fill:#D84AC5;}
	.st23{clip-path:url(#SVGID_2_);fill:#D84AC4;}
	.st24{clip-path:url(#SVGID_2_);fill:#D849C3;}
	.st25{clip-path:url(#SVGID_2_);fill:#D849C2;}
	.st26{clip-path:url(#SVGID_2_);fill:#D849C1;}
	.st27{clip-path:url(#SVGID_2_);fill:#D949C0;}
	.st28{clip-path:url(#SVGID_2_);fill:#D949BF;}
	.st29{clip-path:url(#SVGID_2_);fill:#D949BE;}
	.st30{clip-path:url(#SVGID_2_);fill:#D949BD;}
	.st31{clip-path:url(#SVGID_2_);fill:#D949BC;}
	.st32{clip-path:url(#SVGID_2_);fill:#D949BB;}
	.st33{clip-path:url(#SVGID_2_);fill:#D948BA;}
	.st34{clip-path:url(#SVGID_2_);fill:#D948B9;}
	.st35{clip-path:url(#SVGID_2_);fill:#D948B8;}
	.st36{clip-path:url(#SVGID_2_);fill:#DA48B7;}
	.st37{clip-path:url(#SVGID_2_);fill:#DA48B6;}
	.st38{clip-path:url(#SVGID_2_);fill:#DA48B5;}
	.st39{clip-path:url(#SVGID_2_);fill:#DA48B4;}
	.st40{clip-path:url(#SVGID_2_);fill:#DA48B3;}
	.st41{clip-path:url(#SVGID_2_);fill:#DA48B2;}
	.st42{clip-path:url(#SVGID_2_);fill:#DA47B1;}
	.st43{clip-path:url(#SVGID_2_);fill:#DA47B0;}
	.st44{clip-path:url(#SVGID_2_);fill:#DA47AF;}
	.st45{clip-path:url(#SVGID_2_);fill:#DA47AE;}
	.st46{clip-path:url(#SVGID_2_);fill:#DB47AD;}
	.st47{clip-path:url(#SVGID_2_);fill:#DB47AC;}
	.st48{clip-path:url(#SVGID_2_);fill:#DB47AB;}
	.st49{clip-path:url(#SVGID_2_);fill:#DB47AA;}
	.st50{clip-path:url(#SVGID_2_);fill:#DB46A9;}
	.st51{clip-path:url(#SVGID_2_);fill:#DB46A8;}
	.st52{clip-path:url(#SVGID_2_);fill:#DB46A7;}
	.st53{clip-path:url(#SVGID_2_);fill:#DB46A6;}
	.st54{clip-path:url(#SVGID_2_);fill:#DB46A5;}
	.st55{clip-path:url(#SVGID_2_);fill:#DB46A4;}
	.st56{clip-path:url(#SVGID_2_);fill:#DC46A3;}
	.st57{clip-path:url(#SVGID_2_);fill:#DC46A2;}
	.st58{clip-path:url(#SVGID_2_);fill:#DC46A1;}
	.st59{clip-path:url(#SVGID_2_);fill:#DC45A0;}
	.st60{clip-path:url(#SVGID_2_);fill:#DC459F;}
	.st61{clip-path:url(#SVGID_2_);fill:#DC459E;}
	.st62{clip-path:url(#SVGID_2_);fill:#DC459D;}
	.st63{clip-path:url(#SVGID_2_);fill:#DC459B;}
	.st64{clip-path:url(#SVGID_2_);fill:#DC459A;}
	.st65{clip-path:url(#SVGID_2_);fill:#DC4599;}
	.st66{clip-path:url(#SVGID_2_);fill:#DD4598;}
	.st67{clip-path:url(#SVGID_2_);fill:#DD4597;}
	.st68{clip-path:url(#SVGID_2_);fill:#DD4496;}
	.st69{clip-path:url(#SVGID_2_);fill:#DD4495;}
	.st70{clip-path:url(#SVGID_2_);fill:#DD4494;}
	.st71{clip-path:url(#SVGID_2_);fill:#DD4493;}
	.st72{clip-path:url(#SVGID_2_);fill:#DD4492;}
	.st73{clip-path:url(#SVGID_2_);fill:#DD4491;}
	.st74{clip-path:url(#SVGID_2_);fill:#DD4490;}
	.st75{clip-path:url(#SVGID_2_);fill:#DE448F;}
	.st76{clip-path:url(#SVGID_2_);fill:#DE438E;}
	.st77{clip-path:url(#SVGID_2_);fill:#DE438C;}
	.st78{clip-path:url(#SVGID_2_);fill:#DE438B;}
	.st79{clip-path:url(#SVGID_2_);fill:#DE438A;}
	.st80{clip-path:url(#SVGID_2_);fill:#DE4389;}
	.st81{clip-path:url(#SVGID_2_);fill:#DE4388;}
	.st82{clip-path:url(#SVGID_2_);fill:#DE4387;}
	.st83{clip-path:url(#SVGID_2_);fill:#DE4386;}
	.st84{clip-path:url(#SVGID_2_);fill:#DF4285;}
	.st85{clip-path:url(#SVGID_2_);fill:#DF4283;}
	.st86{clip-path:url(#SVGID_2_);fill:#DF4282;}
	.st87{clip-path:url(#SVGID_2_);fill:#DF4281;}
	.st88{clip-path:url(#SVGID_2_);fill:#DF4280;}
	.st89{clip-path:url(#SVGID_2_);fill:#DF427F;}
	.st90{clip-path:url(#SVGID_2_);fill:#DF427E;}
	.st91{clip-path:url(#SVGID_2_);fill:#DF427D;}
	.st92{clip-path:url(#SVGID_2_);fill:#DF417B;}
	.st93{clip-path:url(#SVGID_2_);fill:#E0417A;}
	.st94{clip-path:url(#SVGID_2_);fill:#E04179;}
	.st95{clip-path:url(#SVGID_2_);fill:#E04178;}
	.st96{clip-path:url(#SVGID_2_);fill:#E04177;}
	.st97{clip-path:url(#SVGID_2_);fill:#E04176;}
	.st98{clip-path:url(#SVGID_2_);fill:#E04174;}
	.st99{clip-path:url(#SVGID_2_);fill:#E04173;}
	.st100{clip-path:url(#SVGID_2_);fill:#E04072;}
	.st101{clip-path:url(#SVGID_2_);fill:#E14071;}
	.st102{clip-path:url(#SVGID_2_);fill:#E14070;}
	.st103{clip-path:url(#SVGID_2_);fill:#E1406E;}
	.st104{clip-path:url(#SVGID_2_);fill:#E1406D;}
	.st105{clip-path:url(#SVGID_2_);fill:#E1406C;}
	.st106{clip-path:url(#SVGID_2_);fill:#E1406B;}
	.st107{clip-path:url(#SVGID_2_);fill:#E13F6A;}
	.st108{clip-path:url(#SVGID_2_);fill:#E13F68;}
	.st109{clip-path:url(#SVGID_2_);fill:#E13F67;}
	.st110{clip-path:url(#SVGID_2_);fill:#E23F66;}
	.st111{clip-path:url(#SVGID_2_);fill:#E23F65;}
	.st112{clip-path:url(#SVGID_2_);fill:#E23F64;}
	.st113{clip-path:url(#SVGID_2_);fill:#E23F62;}
	.st114{clip-path:url(#SVGID_2_);fill:#E23E61;}
	.st115{clip-path:url(#SVGID_2_);fill:#E23E60;}
	.st116{clip-path:url(#SVGID_2_);fill:#E23E5F;}
	.st117{clip-path:url(#SVGID_2_);fill:#E23E5D;}
	.st118{clip-path:url(#SVGID_2_);fill:#E33E5C;}
	.st119{clip-path:url(#SVGID_2_);fill:#E33E5B;}
	.st120{clip-path:url(#SVGID_2_);fill:#E33E5A;}
	.st121{clip-path:url(#SVGID_2_);fill:#E33E58;}
	.st122{clip-path:url(#SVGID_2_);fill:#E33D57;}
	.st123{clip-path:url(#SVGID_2_);fill:#E33D56;}
	.st124{clip-path:url(#SVGID_2_);fill:#E33D55;}
	.st125{clip-path:url(#SVGID_2_);fill:#E33D53;}
	.st126{clip-path:url(#SVGID_2_);fill:#E43D52;}
	.st127{clip-path:url(#SVGID_2_);fill:#E43D51;}
	.st128{clip-path:url(#SVGID_2_);fill:#E43D4F;}
	.st129{clip-path:url(#SVGID_2_);fill:#E43C4E;}
	.st130{clip-path:url(#SVGID_2_);fill:#E43C4D;}
	.st131{clip-path:url(#SVGID_2_);fill:#E43C4C;}
	.st132{clip-path:url(#SVGID_2_);fill:#E43C4A;}
	.st133{clip-path:url(#SVGID_2_);fill:#E43C49;}
	.st134{clip-path:url(#SVGID_2_);fill:#E53C48;}
	.st135{clip-path:url(#SVGID_2_);fill:#E53C46;}
	.st136{clip-path:url(#SVGID_2_);fill:#E53B45;}
	.st137{clip-path:url(#SVGID_2_);fill:#E53B44;}
	.st138{clip-path:url(#SVGID_2_);fill:#E53B43;}
	.st139{clip-path:url(#SVGID_2_);fill:#E53B41;}
	.st140{clip-path:url(#SVGID_2_);fill:#E53B40;}
	.st141{clip-path:url(#SVGID_2_);fill:#E63B3F;}
	.st142{clip-path:url(#SVGID_2_);fill:#E63A3D;}
	.st143{clip-path:url(#SVGID_2_);fill:#E63A3C;}
	.st144{clip-path:url(#SVGID_2_);fill:#E63A3B;}
	.st145{clip-path:url(#SVGID_2_);fill:#E63A39;}
	.st146{clip-path:url(#SVGID_2_);fill:#E63A38;}
	.st147{clip-path:url(#SVGID_2_);fill:#E63A37;}
	.st148{clip-path:url(#SVGID_2_);fill:#E63A35;}
	.st149{clip-path:url(#SVGID_2_);fill:#E73934;}
	.st150{clip-path:url(#SVGID_2_);fill:#E73933;}
	.st151{clip-path:url(#SVGID_2_);fill:#E73931;}
	.st152{clip-path:url(#SVGID_2_);fill:#E73930;}
	.st153{opacity:0.25;}
	.st154{fill:#FFFFFF;}
	.st155{fill:#DA48B5;}
</style>
<g id="WordPress">
	<g>
		<g>
			<defs>
				<rect id="SVGID_1_" y="0" width="800" height="625.8"/>
			</defs>
			<clipPath id="SVGID_2_">
				<use xlink:href="#SVGID_1_"  style="overflow:visible;"/>
			</clipPath>
			<path class="st0" d="M0,619.1l10.3,6.7L0,619.1z"/>
			<polygon class="st0" points="0,612.4 20.6,625.8 10.3,625.8 0,619.1 			"/>
			<polygon class="st0" points="0,605.7 30.9,625.8 20.6,625.8 0,612.4 			"/>
			<polygon class="st1" points="0,599 41.2,625.8 30.9,625.8 0,605.7 			"/>
			<polygon class="st1" points="0,592.3 51.6,625.8 41.2,625.8 0,599 			"/>
			<polygon class="st2" points="0,585.6 61.9,625.8 51.6,625.8 0,592.3 			"/>
			<polygon class="st2" points="0,579 72.2,625.8 61.9,625.8 0,585.6 			"/>
			<polygon class="st2" points="0,572.3 82.5,625.8 72.2,625.8 0,579 			"/>
			<polygon class="st3" points="0,565.6 92.8,625.8 82.5,625.8 0,572.3 			"/>
			<polygon class="st3" points="0,558.9 103.1,625.8 92.8,625.8 0,565.6 			"/>
			<polygon class="st4" points="0,552.2 113.4,625.8 103.1,625.8 0,558.9 			"/>
			<polygon class="st4" points="0,545.5 123.7,625.8 113.4,625.8 0,552.2 			"/>
			<polygon class="st5" points="0,538.8 134,625.8 123.7,625.8 0,545.5 			"/>
			<polygon class="st6" points="0,532.1 144.4,625.8 134,625.8 0,538.8 			"/>
			<polygon class="st6" points="0,525.4 154.7,625.8 144.4,625.8 0,532.1 			"/>
			<polygon class="st7" points="0,518.7 165,625.8 154.7,625.8 0,525.4 			"/>
			<polygon class="st7" points="0,512 175.3,625.8 165,625.8 0,518.7 			"/>
			<polygon class="st8" points="0,505.3 185.6,625.8 175.3,625.8 0,512 			"/>
			<polygon class="st9" points="0,498.6 195.9,625.8 185.6,625.8 0,505.3 			"/>
			<polygon class="st9" points="0,491.9 206.2,625.8 195.9,625.8 0,498.6 			"/>
			<polygon class="st10" points="0,485.2 216.5,625.8 206.2,625.8 0,491.9 			"/>
			<polygon class="st10" points="0,478.5 226.8,625.8 216.5,625.8 0,485.2 			"/>
			<polygon class="st11" points="0,471.8 237.2,625.8 226.8,625.8 0,478.5 			"/>
			<polygon class="st12" points="0,465.1 247.5,625.8 237.2,625.8 0,471.8 			"/>
			<polygon class="st12" points="0,458.4 257.8,625.8 247.5,625.8 0,465.1 			"/>
			<polygon class="st13" points="0,451.7 268.1,625.8 257.8,625.8 0,458.4 			"/>
			<polygon class="st14" points="0,445 278.4,625.8 268.1,625.8 0,451.7 			"/>
			<polygon class="st15" points="0,438.3 288.7,625.8 278.4,625.8 0,445 			"/>
			<polygon class="st16" points="0,431.6 299,625.8 288.7,625.8 0,438.3 			"/>
			<polygon class="st17" points="0,424.9 309.3,625.8 299,625.8 0,431.6 			"/>
			<polygon class="st18" points="0,418.2 319.6,625.8 309.3,625.8 0,424.9 			"/>
			<polygon class="st19" points="0,411.5 330,625.8 319.6,625.8 0,418.2 			"/>
			<polygon class="st19" points="0,404.9 340.3,625.8 330,625.8 0,411.5 			"/>
			<polygon class="st20" points="0,398.2 350.6,625.8 340.3,625.8 0,404.9 			"/>
			<polygon class="st21" points="0,391.5 360.9,625.8 350.6,625.8 0,398.2 			"/>
			<polygon class="st22" points="0,384.8 371.2,625.8 360.9,625.8 0,391.5 			"/>
			<polygon class="st22" points="0,378.1 381.5,625.8 371.2,625.8 0,384.8 			"/>
			<polygon class="st23" points="0,371.4 391.8,625.8 381.5,625.8 0,378.1 			"/>
			<polygon class="st24" points="0,364.7 402.1,625.8 391.8,625.8 0,371.4 			"/>
			<polygon class="st25" points="0,358 412.4,625.8 402.1,625.8 0,364.7 			"/>
			<polygon class="st26" points="0,351.3 422.8,625.8 412.4,625.8 0,358 			"/>
			<polygon class="st27" points="0,344.6 433.1,625.8 422.8,625.8 0,351.3 			"/>
			<polygon class="st27" points="0,337.9 443.4,625.8 433.1,625.8 0,344.6 			"/>
			<polygon class="st28" points="0,331.2 453.7,625.8 443.4,625.8 0,337.9 			"/>
			<polygon class="st29" points="0,324.5 464,625.8 453.7,625.8 0,331.2 			"/>
			<polygon class="st30" points="0,317.8 474.3,625.8 464,625.8 0,324.5 			"/>
			<polygon class="st31" points="0,311.1 484.6,625.8 474.3,625.8 0,317.8 			"/>
			<polygon class="st32" points="0,304.4 494.9,625.8 484.6,625.8 0,311.1 			"/>
			<polygon class="st33" points="0,297.7 505.2,625.8 494.9,625.8 0,304.4 			"/>
			<polygon class="st33" points="0,291 515.6,625.8 505.2,625.8 0,297.7 			"/>
			<polygon class="st34" points="0,284.3 525.9,625.8 515.6,625.8 0,291 			"/>
			<polygon class="st35" points="0,277.6 536.2,625.8 525.9,625.8 0,284.3 			"/>
			<polygon class="st36" points="0,270.9 546.5,625.8 536.2,625.8 0,277.6 			"/>
			<polygon class="st37" points="0,264.2 556.8,625.8 546.5,625.8 0,270.9 			"/>
			<polygon class="st38" points="0,257.5 567.1,625.8 556.8,625.8 0,264.2 			"/>
			<polygon class="st39" points="0,250.8 577.4,625.8 567.1,625.8 0,257.5 			"/>
			<polygon class="st40" points="0,244.1 587.7,625.8 577.4,625.8 0,250.8 			"/>
			<polygon class="st41" points="0,237.4 598,625.8 587.7,625.8 0,244.1 			"/>
			<polygon class="st42" points="0,230.8 608.4,625.8 598,625.8 0,237.4 			"/>
			<polygon class="st43" points="0,224.1 618.7,625.8 608.4,625.8 0,230.8 			"/>
			<polygon class="st44" points="0,217.4 629,625.8 618.7,625.8 0,224.1 			"/>
			<polygon class="st45" points="0,210.7 639.3,625.8 629,625.8 0,217.4 			"/>
			<polygon class="st45" points="0,204 649.6,625.8 639.3,625.8 0,210.7 			"/>
			<polygon class="st46" points="0,197.3 659.9,625.8 649.6,625.8 0,204 			"/>
			<polygon class="st47" points="0,190.6 670.2,625.8 659.9,625.8 0,197.3 			"/>
			<polygon class="st48" points="0,183.9 680.5,625.8 670.2,625.8 0,190.6 			"/>
			<polygon class="st49" points="0,177.2 690.8,625.8 680.5,625.8 0,183.9 			"/>
			<polygon class="st50" points="0,170.5 701.2,625.8 690.8,625.8 0,177.2 			"/>
			<polygon class="st51" points="0,163.8 711.5,625.8 701.2,625.8 0,170.5 			"/>
			<polygon class="st52" points="0,157.1 721.8,625.8 711.5,625.8 0,163.8 			"/>
			<polygon class="st53" points="0,150.4 732.1,625.8 721.8,625.8 0,157.1 			"/>
			<polygon class="st54" points="0,143.7 742.4,625.8 732.1,625.8 0,150.4 			"/>
			<polygon class="st55" points="0,137 752.7,625.8 742.4,625.8 0,143.7 			"/>
			<polygon class="st56" points="0,130.3 763,625.8 752.7,625.8 0,137 			"/>
			<polygon class="st57" points="0,123.6 773.3,625.8 763,625.8 0,130.3 			"/>
			<polygon class="st58" points="0,116.9 783.6,625.8 773.3,625.8 0,123.6 			"/>
			<polygon class="st59" points="0,110.2 794,625.8 783.6,625.8 0,116.9 			"/>
			<polygon class="st60" points="0,103.5 800,623.1 800,625.8 794,625.8 0,110.2 			"/>
			<polygon class="st61" points="0,96.8 800,616.4 800,623.1 0,103.5 			"/>
			<polygon class="st62" points="0,90.1 800,609.7 800,616.4 0,96.8 			"/>
			<polygon class="st63" points="0,83.4 800,603 800,609.7 0,90.1 			"/>
			<polygon class="st64" points="0,76.7 800,596.3 800,603 0,83.4 			"/>
			<polygon class="st65" points="0,70 800,589.6 800,596.3 0,76.7 			"/>
			<polygon class="st66" points="0,63.4 800,582.9 800,589.6 0,70 			"/>
			<polygon class="st67" points="0,56.7 800,576.2 800,582.9 0,63.4 			"/>
			<polygon class="st68" points="0,50 800,569.5 800,576.2 0,56.7 			"/>
			<polygon class="st69" points="0,43.3 800,562.8 800,569.5 0,50 			"/>
			<polygon class="st70" points="0,36.6 800,556.1 800,562.8 0,43.3 			"/>
			<polygon class="st71" points="0,29.9 800,549.4 800,556.1 0,36.6 			"/>
			<polygon class="st72" points="0,23.2 800,542.7 800,549.4 0,29.9 			"/>
			<polygon class="st73" points="0,16.5 800,536 800,542.7 0,23.2 			"/>
			<polygon class="st74" points="0,9.8 800,529.3 800,536 0,16.5 			"/>
			<polygon class="st75" points="0,3.1 800,522.6 800,529.3 0,9.8 			"/>
			<polygon class="st76" points="5.6,0 800,515.9 800,522.6 0,3.1 0,0 			"/>
			<polygon class="st77" points="15.9,0 800,509.2 800,515.9 5.6,0 			"/>
			<polygon class="st78" points="26.2,0 800,502.5 800,509.2 15.9,0 			"/>
			<polygon class="st79" points="36.5,0 800,495.8 800,502.5 26.2,0 			"/>
			<polygon class="st80" points="46.8,0 800,489.1 800,495.8 36.5,0 			"/>
			<polygon class="st81" points="57.1,0 800,482.4 800,489.1 46.8,0 			"/>
			<polygon class="st82" points="67.4,0 800,475.7 800,482.4 57.1,0 			"/>
			<polygon class="st83" points="77.7,0 800,469 800,475.7 67.4,0 			"/>
			<polygon class="st84" points="88.1,0 800,462.3 800,469 77.7,0 			"/>
			<polygon class="st85" points="98.4,0 800,455.7 800,462.3 88.1,0 			"/>
			<polygon class="st86" points="108.7,0 800,449 800,455.7 98.4,0 			"/>
			<polygon class="st87" points="119,0 800,442.3 800,449 108.7,0 			"/>
			<polygon class="st88" points="129.3,0 800,435.6 800,442.3 119,0 			"/>
			<polygon class="st89" points="139.6,0 800,428.9 800,435.6 129.3,0 			"/>
			<polygon class="st90" points="149.9,0 800,422.2 800,428.9 139.6,0 			"/>
			<polygon class="st91" points="160.2,0 800,415.5 800,422.2 149.9,0 			"/>
			<polygon class="st92" points="170.5,0 800,408.8 800,415.5 160.2,0 			"/>
			<polygon class="st93" points="180.9,0 800,402.1 800,408.8 170.5,0 			"/>
			<polygon class="st94" points="191.2,0 800,395.4 800,402.1 180.9,0 			"/>
			<polygon class="st95" points="201.5,0 800,388.7 800,395.4 191.2,0 			"/>
			<polygon class="st96" points="211.8,0 800,382 800,388.7 201.5,0 			"/>
			<polygon class="st97" points="222.1,0 800,375.3 800,382 211.8,0 			"/>
			<polygon class="st98" points="232.4,0 800,368.6 800,375.3 222.1,0 			"/>
			<polygon class="st99" points="242.7,0 800,361.9 800,368.6 232.4,0 			"/>
			<polygon class="st100" points="253,0 800,355.2 800,361.9 242.7,0 			"/>
			<polygon class="st101" points="263.3,0 800,348.5 800,355.2 253,0 			"/>
			<polygon class="st102" points="273.7,0 800,341.8 800,348.5 263.3,0 			"/>
			<polygon class="st103" points="284,0 800,335.1 800,341.8 273.7,0 			"/>
			<polygon class="st104" points="294.3,0 800,328.4 800,335.1 284,0 			"/>
			<polygon class="st105" points="304.6,0 800,321.7 800,328.4 294.3,0 			"/>
			<polygon class="st106" points="314.9,0 800,315 800,321.7 304.6,0 			"/>
			<polygon class="st107" points="325.2,0 800,308.3 800,315 314.9,0 			"/>
			<polygon class="st108" points="335.5,0 800,301.6 800,308.3 325.2,0 			"/>
			<polygon class="st109" points="345.8,0 800,294.9 800,301.6 335.5,0 			"/>
			<polygon class="st110" points="356.1,0 800,288.2 800,294.9 345.8,0 			"/>
			<polygon class="st111" points="366.5,0 800,281.6 800,288.2 356.1,0 			"/>
			<polygon class="st112" points="376.8,0 800,274.9 800,281.6 366.5,0 			"/>
			<polygon class="st113" points="387.1,0 800,268.2 800,274.9 376.8,0 			"/>
			<polygon class="st114" points="397.4,0 800,261.5 800,268.2 387.1,0 			"/>
			<polygon class="st115" points="407.7,0 800,254.8 800,261.5 397.4,0 			"/>
			<polygon class="st116" points="418,0 800,248.1 800,254.8 407.7,0 			"/>
			<polygon class="st117" points="428.3,0 800,241.4 800,248.1 418,0 			"/>
			<polygon class="st118" points="438.6,0 800,234.7 800,241.4 428.3,0 			"/>
			<polygon class="st119" points="448.9,0 800,228 800,234.7 438.6,0 			"/>
			<polygon class="st120" points="459.3,0 800,221.3 800,228 448.9,0 			"/>
			<polygon class="st121" points="469.6,0 800,214.6 800,221.3 459.3,0 			"/>
			<polygon class="st122" points="479.9,0 800,207.9 800,214.6 469.6,0 			"/>
			<polygon class="st123" points="490.2,0 800,201.2 800,207.9 479.9,0 			"/>
			<polygon class="st124" points="500.5,0 800,194.5 800,201.2 490.2,0 			"/>
			<polygon class="st125" points="510.8,0 800,187.8 800,194.5 500.5,0 			"/>
			<polygon class="st126" points="521.1,0 800,181.1 800,187.8 510.8,0 			"/>
			<polygon class="st127" points="531.4,0 800,174.4 800,181.1 521.1,0 			"/>
			<polygon class="st128" points="541.7,0 800,167.7 800,174.4 531.4,0 			"/>
			<polygon class="st129" points="552.1,0 800,161 800,167.7 541.7,0 			"/>
			<polygon class="st130" points="562.4,0 800,154.3 800,161 552.1,0 			"/>
			<polygon class="st131" points="572.7,0 800,147.6 800,154.3 562.4,0 			"/>
			<polygon class="st132" points="583,0 800,140.9 800,147.6 572.7,0 			"/>
			<polygon class="st133" points="593.3,0 800,134.2 800,140.9 583,0 			"/>
			<polygon class="st134" points="603.6,0 800,127.5 800,134.2 593.3,0 			"/>
			<polygon class="st135" points="613.9,0 800,120.8 800,127.5 603.6,0 			"/>
			<polygon class="st136" points="624.2,0 800,114.2 800,120.8 613.9,0 			"/>
			<polygon class="st137" points="634.5,0 800,107.5 800,114.2 624.2,0 			"/>
			<polygon class="st138" points="644.8,0 800,100.8 800,107.5 634.5,0 			"/>
			<polygon class="st139" points="655.2,0 800,94.1 800,100.8 644.8,0 			"/>
			<polygon class="st140" points="665.5,0 800,87.4 800,94.1 655.2,0 			"/>
			<polygon class="st141" points="675.8,0 800,80.7 800,87.4 665.5,0 			"/>
			<polygon class="st142" points="686.1,0 800,74 800,80.7 675.8,0 			"/>
			<polygon class="st143" points="696.4,0 800,67.3 800,74 686.1,0 			"/>
			<polygon class="st144" points="706.7,0 800,60.6 800,67.3 696.4,0 			"/>
			<polygon class="st145" points="717,0 800,53.9 800,60.6 706.7,0 			"/>
			<polygon class="st146" points="727.3,0 800,47.2 800,53.9 717,0 			"/>
			<polygon class="st147" points="737.6,0 800,40.5 800,47.2 727.3,0 			"/>
			<polygon class="st148" points="748,0 800,33.8 800,40.5 737.6,0 			"/>
			<polygon class="st149" points="758.3,0 800,27.1 800,33.8 748,0 			"/>
			<polygon class="st150" points="768.6,0 800,20.4 800,27.1 758.3,0 			"/>
			<polygon class="st151" points="778.9,0 800,13.7 800,20.4 768.6,0 			"/>
			<polygon class="st152" points="789.2,0 800,7 800,13.7 778.9,0 			"/>
			<polygon class="st152" points="800,7 789.2,0 800,0 			"/>
		</g>
	</g>
	<g>
		<g>
			<g class="st153">
				<path d="M584.1,312.9c-2.9,60.9-21.7,111.9-69.7,148.3c-32.2,24.4-69.1,35-110.1,32.8c69.6-40.3,85.4-106.3,88.1-180.1
					c-4.7-0.2-8.5-0.5-12.3-0.5c-16.2-0.2-32.5,0-48.7-0.7c-3.7-0.1-8.9-2.1-10.3-4.9c-1.3-2.7,0.3-8.2,2.4-11
					c19.4-25.6,39.1-51,58.9-76.2c15.2-19.5,30.6-38.8,46.2-58c8-9.9,12.1-9.9,19.9,0.1c34.4,43.9,68.8,87.8,102.8,132.1
					c2.8,3.6,4.6,10.1,3.2,13.9c-0.9,2.6-8.2,4-12.6,4.1C622.9,313.1,603.8,312.9,584.1,312.9z"/>
			</g>
			<g>
				<path class="st154" d="M584.1,306.9c-2.9,60.9-21.7,111.9-69.7,148.3c-32.2,24.4-69.1,35-110.1,32.8
					c69.6-40.3,85.4-106.3,88.1-180.1c-4.7-0.2-8.5-0.5-12.3-0.5c-16.2-0.2-32.5,0-48.7-0.7c-3.7-0.1-8.9-2.1-10.3-4.9
					c-1.3-2.7,0.3-8.2,2.4-11c19.4-25.6,39.1-51,58.9-76.2c15.2-19.5,30.6-38.8,46.2-58c8-9.9,12.1-9.9,19.9,0.1
					c34.4,43.9,68.8,87.8,102.8,132.1c2.8,3.6,4.6,10.1,3.2,13.9c-0.9,2.6-8.2,4-12.6,4.1C622.9,307.1,603.8,306.9,584.1,306.9z"/>
			</g>
		</g>
		<g>
			<g class="st153">
				<path d="M213.8,325c2.9-60.9,21.7-111.9,69.7-148.3c32.2-24.4,69.1-35,110.1-32.8c-69.6,40.3-85.4,106.3-88.1,180.1
					c4.7,0.2,8.5,0.5,12.3,0.5c16.2,0.2,32.5,0,48.7,0.7c3.7,0.1,8.9,2.1,10.3,4.9c1.3,2.7-0.3,8.2-2.4,11
					c-19.4,25.6-39.1,51-58.9,76.2c-15.2,19.5-30.6,38.8-46.2,58c-8,9.9-12.1,9.9-19.9-0.1c-34.4-43.9-68.8-87.8-102.8-132.1
					c-2.8-3.6-4.6-10.1-3.2-13.9c0.9-2.6,8.2-4,12.6-4.1C175.1,324.7,194.1,325,213.8,325z"/>
			</g>
			<g>
				<path class="st154" d="M213.8,319c2.9-60.9,21.7-111.9,69.7-148.3c32.2-24.4,69.1-35,110.1-32.8
					c-69.6,40.3-85.4,106.3-88.1,180.1c4.7,0.2,8.5,0.5,12.3,0.5c16.2,0.2,32.5,0,48.7,0.7c3.7,0.1,8.9,2.1,10.3,4.9
					c1.3,2.7-0.3,8.2-2.4,11c-19.4,25.6-39.1,51-58.9,76.2c-15.2,19.5-30.6,38.8-46.2,58c-8,9.9-12.1,9.9-19.9-0.1
					c-34.4-43.9-68.8-87.8-102.8-132.1c-2.8-3.6-4.6-10.1-3.2-13.9c0.9-2.6,8.2-4,12.6-4.1C175.1,318.7,194.1,319,213.8,319z"/>
			</g>
		</g>
	</g>
	<g>
		<path class="st155" d="M32.3,740.8c-2.9-3.6-4.3-8.9-4.3-15.7v-22.9c0-7,1.4-12.3,4.3-15.9c2.9-3.6,7.8-5.4,14.7-5.4
			c6.6,0,11.3,1.6,14.1,4.8c2.8,3.2,4.1,7.7,4.1,13.5v5.5H51.5v-6.3c0-2.5-0.3-4.3-0.8-5.6c-0.5-1.3-1.8-2-3.8-2
			c-2,0-3.3,0.7-3.9,2.1c-0.6,1.4-0.9,3.3-0.9,5.8v29.8c0,2.5,0.3,4.4,1,5.8c0.7,1.3,1.9,2,3.9,2c1.9,0,3.2-0.7,3.7-2
			s0.8-3.2,0.8-5.8v-6.7h13.7v5.5c0,6-1.4,10.6-4.1,13.9c-2.8,3.3-7.5,5-14.1,5C40.1,746.3,35.2,744.4,32.3,740.8z"/>
		<path class="st155" d="M81.8,681.9h16l11.8,63.4H96.7l-2.1-13.4h-9.3L83,745.3H69.8L81.8,681.9z M93.2,723.6l-3.4-24.7l-3.4,24.7
			H93.2z"/>
		<path class="st155" d="M120.2,692.3h-9.7v-10.4h33.4v10.4h-9.6v53h-14.1V692.3z"/>
		<path class="st155" d="M151.2,740.8c-2.9-3.6-4.3-8.9-4.3-15.7v-22.9c0-7,1.4-12.3,4.3-15.9c2.9-3.6,7.8-5.4,14.7-5.4
			c6.6,0,11.3,1.6,14.1,4.8c2.8,3.2,4.1,7.7,4.1,13.5v5.5h-13.7v-6.3c0-2.5-0.3-4.3-0.8-5.6c-0.5-1.3-1.8-2-3.8-2
			c-2,0-3.3,0.7-3.9,2.1c-0.6,1.4-0.9,3.3-0.9,5.8v29.8c0,2.5,0.3,4.4,1,5.8c0.7,1.3,1.9,2,3.9,2c1.9,0,3.2-0.7,3.7-2
			s0.8-3.2,0.8-5.8v-6.7h13.7v5.5c0,6-1.4,10.6-4.1,13.9c-2.8,3.3-7.5,5-14.1,5C159,746.3,154.1,744.4,151.2,740.8z"/>
		<path class="st155" d="M192,681.9h14v25.7h9.8v-25.7h14.1v63.4h-14.1v-27.7H206v27.7h-14V681.9z"/>
		<path class="st155" d="M259.6,681.9h14v63.4h-14V681.9z"/>
		<path class="st155" d="M284,681.9h15l7,36.9l7.5-36.9H328l1.1,63.4h-9.9l-1.2-42.2l-7.4,42.2h-8.8l-7.8-42.5l-0.9,42.5h-10.1
			L284,681.9z"/>
		<path class="st155" d="M338.2,681.9h21.3c5.6,0,9.8,1.6,12.5,4.7c2.8,3.2,4.1,7.7,4.1,13.7c0,6.8-1.6,11.5-4.8,14.1
			c-3.2,2.6-7.7,4-13.5,4h-5.6v26.9h-14V681.9z M356.9,708.6c2.5,0,4.1-0.7,4.9-2c0.8-1.3,1.2-3.5,1.2-6.6c0-2.8-0.4-4.9-1.2-6.3
			c-0.8-1.4-2.5-2-5-2h-4.6v16.8H356.9z"/>
		<path class="st155" d="M386.5,741c-2.9-3.5-4.4-8.7-4.4-15.6v-23.6c0-6.9,1.5-12.1,4.4-15.5c2.9-3.5,7.8-5.2,14.6-5.2
			c6.9,0,11.8,1.7,14.8,5.2c2.9,3.5,4.4,8.7,4.4,15.5v23.6c0,6.9-1.5,12.1-4.4,15.6c-2.9,3.5-7.9,5.3-14.8,5.3
			C394.3,746.3,389.4,744.5,386.5,741z M405,734.3c0.6-1.3,0.9-3.1,0.9-5.4v-30.5c0-2.3-0.3-4.2-0.9-5.5c-0.6-1.3-1.9-2-3.9-2
			c-1.9,0-3.1,0.7-3.8,2c-0.6,1.3-0.9,3.1-0.9,5.4v30.5c0,2.3,0.3,4.1,0.9,5.4c0.6,1.3,1.9,2,3.8,2S404.4,735.7,405,734.3z"/>
		<path class="st155" d="M428.8,681.9h17.5c6.9,0,12.2,1.2,15.7,3.7c3.5,2.5,5.3,6.8,5.3,13.1c0,4.2-0.5,7.6-1.6,10.1
			c-1.1,2.5-3.1,4.5-6.1,5.9l8.7,30.7h-14.5l-7-28.4h-4v28.4h-14V681.9z M446.7,708.8c2.8,0,4.8-0.7,5.9-2.2
			c1.1-1.5,1.7-3.7,1.7-6.7c0-2.9-0.5-5-1.6-6.5c-1-1.4-2.8-2.2-5.4-2.2h-4.5v17.5H446.7z"/>
		<path class="st155" d="M481.6,692.3h-9.7v-10.4h33.4v10.4h-9.6v53h-14.1V692.3z"/>
		<path class="st155" d="M530.8,681.9h28.5v9.6h-14.5v15.7h11v9.7h-11v18.9h14.6v9.5h-28.7V681.9z"/>
		<path class="st155" d="M574,711.2l-11.7-29.3h13.2l7,17.1l5.6-17.1h11.7l-11.1,33l12.4,30.5h-13.2l-7.8-18.9l-6.8,18.9h-11.6
			L574,711.2z"/>
		<path class="st155" d="M606.1,681.9h21.3c5.6,0,9.8,1.6,12.5,4.7c2.8,3.2,4.1,7.7,4.1,13.7c0,6.8-1.6,11.5-4.8,14.1
			c-3.2,2.6-7.7,4-13.5,4h-5.6v26.9h-14V681.9z M624.8,708.6c2.5,0,4.1-0.7,4.9-2c0.8-1.3,1.2-3.5,1.2-6.6c0-2.8-0.4-4.9-1.2-6.3
			c-0.8-1.4-2.5-2-5-2h-4.6v16.8H624.8z"/>
		<path class="st155" d="M654.4,741c-2.9-3.5-4.4-8.7-4.4-15.6v-23.6c0-6.9,1.5-12.1,4.4-15.5c2.9-3.5,7.8-5.2,14.6-5.2
			c6.9,0,11.8,1.7,14.8,5.2c2.9,3.5,4.4,8.7,4.4,15.5v23.6c0,6.9-1.5,12.1-4.4,15.6c-2.9,3.5-7.9,5.3-14.8,5.3
			C662.2,746.3,657.3,744.5,654.4,741z M672.9,734.3c0.6-1.3,0.9-3.1,0.9-5.4v-30.5c0-2.3-0.3-4.2-0.9-5.5c-0.6-1.3-1.9-2-3.9-2
			c-1.9,0-3.1,0.7-3.8,2s-0.9,3.1-0.9,5.4v30.5c0,2.3,0.3,4.1,0.9,5.4c0.6,1.3,1.9,2,3.8,2C671,736.3,672.3,735.7,672.9,734.3z"/>
		<path class="st155" d="M696.7,681.9h17.5c6.9,0,12.2,1.2,15.7,3.7c3.5,2.5,5.3,6.8,5.3,13.1c0,4.2-0.5,7.6-1.6,10.1
			c-1.1,2.5-3.1,4.5-6.1,5.9l8.7,30.7h-14.5l-7-28.4h-4v28.4h-14V681.9z M714.6,708.8c2.8,0,4.8-0.7,5.9-2.2
			c1.1-1.5,1.7-3.7,1.7-6.7c0-2.9-0.5-5-1.6-6.5c-1-1.4-2.8-2.2-5.4-2.2h-4.5v17.5H714.6z"/>
		<path class="st155" d="M749.5,692.3h-9.7v-10.4h33.4v10.4h-9.6v53h-14.1V692.3z"/>
	</g>
</g>
</svg>
